<?xml version="1.0" encoding="UTF-8"?> <svg xmlns="http://www.w3.org/2000/svg" width="949.48826" height="628.28916" viewBox="0 0 949.48826 628.28916"><defs><style> .cls-1 { fill: #fe5c01; } .cls-2 { fill: #fff; } .cls-3 { fill: #1a1a1a; } .cls-4 { fill: #edf3f3; } .cls-5 { fill: #232323; } </style></defs><g id="Layer_2" data-name="Layer 2"><g id="SOCIAL_MEDIA_AND_COMMUNITY_MANAGEMENT" data-name="SOCIAL MEDIA AND COMMUNITY MANAGEMENT"><g><circle class="cls-1" cx="503.53202" cy="138.6683" r="28.73389"></circle><path class="cls-2" d="M918.50515,224.5179H843.27087L809.08555,246.146v-79.9675a19.1055,19.1055,0,0,1,19.10592-19.10592h90.31368a19.10616,19.10616,0,0,1,19.106,19.10592v39.23418A19.10609,19.10609,0,0,1,918.50515,224.5179Z"></path><path class="cls-2" d="M876.87525,530.8963s9.79253,11.65488,22.29766,13.69487c12.50447,2.04077,27.54154,4.10538,29.62018,10.82378l-.47614,2.92611h-86.6263s-4.64478-.96865-6.61861-6.65881C833.09743,545.99219,873.3918,524.97414,876.87525,530.8963Z"></path><path class="cls-2" d="M673.65117,189.79005s4.21619,10.37437,4.14558,14.00138c-.07072,3.62779-.24113,31.58733-.24113,31.58733s2.04155,16.86356,13.30426,17.18355c0,0,2.639.50287,2.78411,1.892.14434,1.38832,1.264,6.51369-2.94182,8.89829-4.20583,2.3837-7.568,12.97236-7.568,12.97236l-8.61482,60.0581-1.7356,62.92017-9.0502,42.26833,90.11131.86819,18.91992-39.38521L755.10366,272.43384A16.06614,16.06614,0,0,1,745.803,266.775c-4.28247-5.03092-8.12822-3.33687-8.78212-16.32271-.65479-12.98506-1.20611-21.23379-1.20611-21.23379s-.47246-3.0259,4.6998-1.47987c5.17237,1.54681,14.4597-4.74814,14.58912-13.578.12953-8.829-9.30069-14.55036-9.30069-14.55036l-13.65533-22.57233-22.28219-12.712S672.263,176.50594,673.65117,189.79005Z"></path><path class="cls-1" d="M122.03177,224.94637H343.59106a43.10231,43.10231,0,0,1,43.10231,43.10231V412.67586A43.10232,43.10232,0,0,1,343.591,455.77818H122.03188a43.10232,43.10232,0,0,1-43.10232-43.10232V268.04857a43.1022,43.1022,0,0,1,43.1022-43.1022Z"></path><path class="cls-1" d="M370.74055,452.8171s-49.061,2.99082-79.82771,15.5258c-30.76737,12.535-58.06934,18.42674-80.45555,38.12932-22.38713,19.7019-25.4851,37.07958-27.35479,48.18982-1.86891,11.11013,1.642,30.07249,25.72612,35.3676,23.98291,5.27194,37.30645,5.9029,62.96638,4.4737,25.65982-1.42931,52.11576-3.36516,52.11576-3.36516s3.18217-22.73071.61759-36.61826l54.04794,3.82114,69.11553,2.29828s11.22708,30.8411,19.98993,30.76292c8.76285-.0773,54.10374-1.03414,54.10374-1.03414L577.71738,536.518l-29.04659-36.49774s-21.60289-15.91262-66.67971-30.06213c-45.07681-14.15018-67.60815-16.07267-67.60815-16.07267Z"></path><path class="cls-2" d="M475.21844,581.4617s-18.55538,3.14931-27.01773-8.50913l-2.50421,4.2534-10.08279,18.77268s-3.81824,5.13506-10.11174,3.319c-6.29416-1.8169-2.8086-12.14661-2.8086-12.14661l3.264-9.94512-9.7129,12.18381s-6.20362,8.78144-12.137,5.5026c-5.93264-3.27806.86607-13.33244.86607-13.33244s-9.434,5.597-13.0706,2.98269c-3.63748-2.61515.28268-12.22915,3.22817-15.87331s14.51995-19.22131,20.93919-22.541c6.41847-3.32049,27.15685-1.37785,31.30087-.9545,4.14491.42335,25.28637,2.67094,25.28637,2.67094S478.78,575.76563,475.21844,581.4617Z"></path><path class="cls-2" d="M384.486,560.70928s-3.37852-16.5987-7.943-20.67066a40.32065,40.32065,0,0,0-8.94439-6.08222l7.97273,23.3327-17.03986-10.28137L350.6897,530.104s-9.393.09969-15.39638.82c-6.00336.72083-15.89936,5.50038-15.89936,5.50038s5.04139,15.46332,5.5339,21.90862.45164,18.164.45164,18.164,13.89713,4.46924,18.88795,5.56887c4.99072,1.09885,18.73771,4.031,23.33114,1.43,0,0,8.31723-.8556,11.4495-2.80337,4.01159-2.49464,4.95273-5.44681,4.95273-5.44681s1.83851.4523,3.65307-3.31905C389.73487,567.601,384.486,560.70928,384.486,560.70928Z"></path><path class="cls-2" d="M444.8713,348.74315c-5.554-2.82654-11.98066-5.48111-19.8507-4.01248-7.86927,1.4694-15.02728,7.09563-15.02728,7.09563s-6.51447-5.18573-18.481-3.80343c-11.96584,1.38242-16.59647,8.928-17.58528,13.75591-.94782,4.62473-2.5579,16.08458.12508,24.93a14.00424,14.00424,0,0,0-6.42159,10.65115c.08042,2.59888-.01258,12.80875,12.47919,14.43965l-.74623,2.54375-11.692,38.47381s7.658,34.55443,28.17238,36.82141c16.44757,1.81756,18.20867-19.74356,18.20867-19.74356l7.53-22.18763s10.37069,1.09963,14.005-8.54121c3.6338-9.64006,11.17573-39.80254,11.17573-39.80254s12.3854-6.70125,14.19406-21.06572C462.76688,363.93416,450.42536,351.5688,444.8713,348.74315Z"></path><polygon class="cls-1" points="360.212 549.826 348.156 520.455 359.042 516.03 376.074 557.289 360.212 549.826"></polygon><polygon class="cls-2" points="358.335 515.103 356.387 510.518 345.92 514.518 348.005 519.294 358.335 515.103"></polygon><path class="cls-2" d="M530.81765,610.00976l-7.89455-10.08267a28.7439,28.7439,0,0,1-.87721-11.56555c.85493-6.26666,46.56638-134.82506,46.56638-134.82506s5.99434-12.65839,19.81127-15.336H782.4279l5.59939,1.21123,10.06864,6.46535,1.28262,2.46556-200.55692-2.27889-12.91355,4.935-8.1907,8.81118L530.73512,594.34407l-.285,7.40727Z"></path><path class="cls-3" d="M403.7906,414.34329s4.44017,3.35837,4.30028,7.56866a15.15532,15.15532,0,0,1-2.59208,7.568,12.63884,12.63884,0,0,0,8.97413,3.15533c5.301-.38838,5.467-5.73918,4.4581-7.05243-1.00885-1.31236-5.76311-.49775-7.08962-2.32946-1.32662-1.83172-1.0416-3.25646-1.32662-5.67814C410.22989,415.15423,408.74634,411.25412,403.7906,414.34329Z"></path><path class="cls-1" d="M751.79675,203.79143s6.7145-15.043,5.70787-26.046c-1.00741-11.00376-9.83942-20.59548-33.03969-17.295,0,0-7.48312-23.33939-32.59463-20.27561-25.11084,3.06377-22.22627,27.94551-17.9535,35.108,0,0-15.27653,4.91933,2.90685,24.32742l1.1532-14.19039s24.67769,5.57255,39.09941-10.77244c0,0,2.07875,26.04308,13.39426,30.34793C730.47052,204.99531,739.0839,195.43856,751.79675,203.79143Z"></path><path class="cls-4" d="M684.713,269.87372v51.71036l1.581-2.19559s-3.02133,13.75657-4.44084,42.24594c-1.41962,28.49,0,37.66877,0,37.66877s-15.83766,9.70332-12.68835,37.65329l-1.97829,1.244H588.42354s-18.23918,4.69835-21.23011,18.15876a37.456,37.456,0,0,1-14.01174-32.69c1.61888-21.79324,20.63491-51.7059,28.11358-69.8669C588.77316,335.64048,614.42418,272.47851,684.713,269.87372Z"></path><path class="cls-4" d="M750.87632,272.21287l-27.38149,56.9206-3.83606-4.55178s-16.56529,45.335-19.56279,60.7805c0,0,47.625-2.84514,47.625,4.66182v47.8215l33.27548.355,6.98025.63908,12.39208,9.97029s15.435,6.69457,15.409,20.08438c-.02528,13.389-27.51392,89.44684-27.51392,89.44684h18.295l1.802-35.47842,20.43554,30.92074s19.132-3.24387,30.61857-10.10884c11.48747-6.86487,20.83439-13.48426,20.83439-13.48426s-15.83466-59.18312-18.83071-70.39672c-2.99539-11.21427-27.99529-112.20963-29.2817-117.86471-1.28563-5.65441-7.81425-28.52657-16.01609-38.09668C807.9182,294.26206,784.712,273.09743,750.87632,272.21287Z"></path><path class="cls-1" d="M687.74622,390.024a76.61079,76.61079,0,0,0,31.04124,4.98113A123.89865,123.89865,0,0,0,747.721,390.024v47.8215l-23.60568.355s3.644-4.80929,2.89637-10.25832c-.74768-5.44837-4.27278-7.0502-4.27278-7.0502a14.56009,14.56009,0,0,0,.64053-10.25608c-1.81612-5.34123-9.40939-4.72063-9.40939-4.72063s-19.5433,1.67846-25.09736-.00523l-1.12647-1.25668Z"></path><path class="cls-5" d="M558.50053,627.15979H743.96234c12.2209,0,23.06695-7.49437,26.91059-18.59559l43.98532-127.0264c6.0792-17.55767-7.58214-35.66075-26.91137-35.66075H602.48517c-12.221,0-23.06706,7.49426-26.91136,18.59559L531.58927,591.49826C525.50928,609.05593,539.17129,627.15979,558.50053,627.15979Z"></path><path class="cls-2" d="M675.09083,536.45259c-5.64929,9.7843-5.00942,20.73,1.4292,24.44782,6.43929,3.71778,16.23862-1.20076,21.8878-10.98584,5.64918-9.78518,5.00931-20.73092-1.43-24.44792C690.53923,521.74887,680.74,526.66741,675.09083,536.45259Z"></path><path class="cls-2" d="M683.52256,175.61392c-12.37349-6.548-7.93175-25.50222-.69188-32.92587-15.20893,7.25335-12.58187,26.44637-8.91388,32.59474,0,0-15.27653,4.91933,2.90685,24.32742l1.1532-14.19039s24.67769,5.57255,39.10019-10.77244C717.077,174.64738,699.66294,184.155,683.52256,175.61392Z"></path><path class="cls-2" d="M735.22622,201.43078c-11.2998-2.38158-17.43124-27.14871-17.43124-27.14871l-.59665,1.5781c.57214,5.17227,3.42085,25.38751,13.27219,29.13514a15.84939,15.84939,0,0,1,5.20133-3.44847C735.52238,201.50886,735.39,201.465,735.22622,201.43078Z"></path><polygon class="cls-2" points="707.212 301.811 696.886 313.207 698.637 330.351 681.853 367.903 683.464 347.501 692.62 329.374 690.333 312.85 703.435 295.589 707.212 301.811"></polygon><path class="cls-3" d="M929.3482,559.22863a1.12863,1.12863,0,0,1-1.12636-1.08916c-.18166-5.5153-6.699-7.97051-6.76452-7.99279a39.56337,39.56337,0,0,0-12.43151-2.64421c-20.74361-1.7298-31.77266-14.09583-32.2302-14.61886a1.1278,1.1278,0,0,1,.10859-1.59069,1.14772,1.14772,0,0,1,1.59148.10859c.10191.12352,10.92791,12.20609,30.719,13.84813a41.93021,41.93021,0,0,1,13.06391,2.79747c.27611.09444,7.963,2.96409,8.19527,10.01941a1.122,1.122,0,0,1-1.08927,1.16211Z"></path><path class="cls-3" d="M917.60633,559.03973a1.12457,1.12457,0,0,1-.90093-1.80866c.02228-.0216,1.95445-2.62338,1.14129-4.87544-.55956-1.54759-2.33236-2.68809-5.27506-3.386-10.448-2.49163-21.2955-6.08144-21.40487-6.11719a1.12817,1.12817,0,0,1-.712-1.42407,1.10477,1.10477,0,0,1,1.42407-.71193c.10937.03564,10.86242,3.59649,21.21585,6.05916,3.73494.88612,6.05248,2.5139,6.88057,4.83156,1.21346,3.40748-1.35847,6.844-1.47464,6.98983A1.11307,1.11307,0,0,1,917.60633,559.03973Z"></path><path class="cls-3" d="M873.51153,559.469c-14.20442-2.9358-13.39793-10.89884-13.35405-11.24033a1.06115,1.06115,0,0,1,1.25667-.98068,1.12323,1.12323,0,0,1,.98057,1.24253c-.02161.26864-.465,6.29205,11.349,8.74793a1.12723,1.12723,0,0,1-.23223,2.23055Z"></path><path class="cls-3" d="M840.0456,559.22863a1.12214,1.12214,0,0,1-.79145-.32656,16.67242,16.67242,0,0,1-3.90913-5.8129,1.12926,1.12926,0,0,1,2.136-.73354,14.53228,14.53228,0,0,0,3.357,4.94762,1.11876,1.11876,0,0,1,.00735,1.59136A1.10448,1.10448,0,0,1,840.0456,559.22863Z"></path><path class="cls-3" d="M256.23712,596.45111c-29.28761,0-58.13249-3.73493-68.13711-18.00484-5.81959-8.28972-7.28743-20.4742-4.03251-33.42128,5.48554-21.83356,23.061-41.6396,48.2366-54.333a395.0571,395.0571,0,0,1,46.43462-19.60223c14.0006-4.93346,30.61044-10.4481,47.63326-13.95,15.08386-3.08839,27.05783-4.14937,41.13806-5.20957a1.167,1.167,0,0,1,1.21346,1.0387,1.13514,1.13514,0,0,1-1.03859,1.21346c-14.00806,1.05341-25.9024,2.10693-40.862,5.16558-16.89263,3.473-33.40724,8.95854-47.32831,13.86294A392.09336,392.09336,0,0,0,233.3212,492.712c-24.587,12.39509-41.74073,31.664-47.067,52.85754-3.09507,12.31546-1.75074,23.83112,3.69094,31.58366,16.44993,23.47549,91.25708,16.66709,123.1889,13.78342,4.25038-.38548,7.87594-.712,10.695-.92332a1.18384,1.18384,0,0,1,1.20678,1.04683,1.13057,1.13057,0,0,1-1.04684,1.206c-2.80415.20315-6.41557.53049-10.65114.91508C298.66092,594.51815,277.3289,596.45111,256.23712,596.45111Z"></path><path class="cls-3" d="M551.53442,503.26187a1.09487,1.09487,0,0,1-.683-.23289,108.28327,108.28327,0,0,0-13.21561-8.63855c-24.05665-13.57213-51.58627-22.37062-75.35256-29.18648-10.83269-3.10922-27.13011-7.4036-43.44825-8.73311a1.1279,1.1279,0,0,1,.09444-2.25206c16.60918,1.35112,33.05161,5.68115,43.97875,8.8201,23.88914,6.8515,51.57859,15.70145,75.8316,29.38963a109.76277,109.76277,0,0,1,13.47757,8.81342,1.12347,1.12347,0,0,1,.21061,1.57655A1.11031,1.11031,0,0,1,551.53442,503.26187Z"></path><path class="cls-3" d="M485.40982,592.52728c-6.03767,0-11.74855-.09456-16.8777-.29025a1.12375,1.12375,0,0,1-1.08259-1.17024,1.10426,1.10426,0,0,1,1.16957-1.08259c14.89418.56691,34.759.28345,53.09722-.741a1.164,1.164,0,0,1,1.19185,1.061,1.1289,1.1289,0,0,1-1.06087,1.19108C509.74235,592.17833,496.98417,592.52728,485.40982,592.52728Z"></path><path class="cls-3" d="M376.07653,558.41546a1.128,1.128,0,0,1-1.046-.70524L358.4213,516.80493l-9.40193,3.81457,11.26194,27.72521a1.127,1.127,0,0,1-.62494,1.46784,1.11094,1.11094,0,0,1-1.468-.62494l-11.683-28.76458a1.13189,1.13189,0,0,1,.625-1.468l11.48659-4.66415a1.11059,1.11059,0,0,1,1.46795.625l17.03764,41.952a1.12559,1.12559,0,0,1-.62427,1.46718A1.08829,1.08829,0,0,1,376.07653,558.41546Z"></path><path class="cls-3" d="M347.55888,521.13507a1.1276,1.1276,0,0,1-1.04606-.70458l-2.27444-5.60162a1.12723,1.12723,0,0,1,.625-1.468L356.35,508.69609a1.17028,1.17028,0,0,1,.85794.00746,1.1531,1.1531,0,0,1,.61.61748l2.267,5.60229a1.12652,1.12652,0,0,1-.62494,1.46718,1.10612,1.10612,0,0,1-1.468-.62494l-1.8452-4.55546-9.39447,3.81446,1.85255,4.56292a1.126,1.126,0,0,1-.62494,1.46795A1.08149,1.08149,0,0,1,347.55888,521.13507Z"></path><path class="cls-3" d="M383.8,593.91482a1.12847,1.12847,0,0,1-.77753-.30506l-10.86243-10.27313a1.13073,1.13073,0,0,1,1.55495-1.642l9.06044,8.57306.58106-13.93511a1.12726,1.12726,0,0,1,2.25283.0871l-.683,16.41259a1.12292,1.12292,0,0,1-.70525,1.003A1.17745,1.17745,0,0,1,383.8,593.91482Z"></path><path class="cls-3" d="M428.542,601.14423a8.04744,8.04744,0,0,1-3.52432-.8281,8.67968,8.67968,0,0,1-3.71265-3.17537,8.28969,8.28969,0,0,1-1.1189-4.926,18.84566,18.84566,0,0,1,1.55494-5.798c.77752-1.96871,1.70006-4.05415,2.90606-6.57551,2.66649-5.54359,5.74741-11.2322,9.1549-16.90666a1.1277,1.1277,0,1,1,1.933,1.16211c-3.37184,5.61643-6.41556,11.24033-9.053,16.71843-1.1845,2.47013-2.0929,4.51168-2.848,6.43039a16.77106,16.77106,0,0,0-1.395,5.10755,6.10525,6.10525,0,0,0,.78421,3.604,6.40829,6.40829,0,0,0,2.77586,2.325c2.543,1.23506,5.27495.55209,7.4467-1.86736a26.63325,26.63325,0,0,0,3.11746-4.74457c.2908-.53049.5884-1.05352.886-1.56241,1.25735-2.16506,2.44185-4.36655,3.61877-6.568l.654-1.22014c.42858-.80648.85705-1.62043,1.27817-2.43438a66.8076,66.8076,0,0,1,6.03833-10.07009,1.11876,1.11876,0,0,1,1.58323-.20382,1.13233,1.13233,0,0,1,.20393,1.584,64.11707,64.11707,0,0,0-5.81958,9.736c-.43605.82141-.86529,1.642-1.29388,2.44852l-.65389,1.22092c-1.19865,2.23045-2.38983,4.45354-3.66132,6.641-.29091.50142-.58183,1.017-.86529,1.5252a28.26566,28.26566,0,0,1-3.4,5.14475A8.86262,8.86262,0,0,1,428.542,601.14423Z"></path><path class="cls-3" d="M407.56563,597.09766a7.32326,7.32326,0,0,1-2.25952-.36309c-2.86964-.95228-4.85316-3.53847-5.10755-5.49292-1.2276-9.431,18.2511-31.30767,19.07986-32.23767a1.1317,1.1317,0,1,1,1.68514,1.51106c-5.464,6.09558-19.43548,23.45321-18.52709,30.43569a5.47386,5.47386,0,0,0,3.58168,3.64038c2.22376.75514,4.6284-.131,6.95341-2.52148,9.04552-9.30737,20.70708-28.932,20.82314-29.12767a1.13014,1.13014,0,1,1,1.947,1.14808c-.48661.81316-11.91517,20.05307-21.15716,29.54868C411.9255,596.37816,409.44791,597.09766,407.56563,597.09766Z"></path><path class="cls-3" d="M395.49052,586.79468a7.8476,7.8476,0,0,1-5.362-2.20149c-5.60909-5.08594,6.16107-18.45492,7.51965-19.95863,4.214-6.03009,15.07639-20.43844,23.032-21.62283,11.77761-1.72914,50.48942,3.50939,52.13146,3.72736a1.13382,1.13382,0,0,1,.96576,1.27148,1.14569,1.14569,0,0,1-1.27149.96654c-.39951-.058-40.02584-5.4565-51.4916-3.72747-4.926.72685-12.99776,8.49354-21.60735,20.78739-4.63587,5.15822-10.74637,14.17479-7.76735,16.88516a5.67052,5.67052,0,0,0,4.39551,1.59137c4.41044-.42847,8.443-5.75488,8.48685-5.80545a1.12582,1.12582,0,1,1,1.8012,1.35112c-.18155.247-4.65669,6.16854-10.06251,6.69235A6.96674,6.96674,0,0,1,395.49052,586.79468Z"></path><path class="cls-3" d="M469.73076,583.61262c-14.55348,0-22.03671-8.55156-22.38565-8.95854a1.12872,1.12872,0,1,1,1.715-1.46795c.087.10191,8.922,10.12811,25.85851,7.79642a1.129,1.129,0,1,1,.30507,2.23724A39.71561,39.71561,0,0,1,469.73076,583.61262Z"></path><path class="cls-3" d="M382.928,619.36637a1.11839,1.11839,0,0,1-.75592-.29014l-40.58529-36.779a1.12649,1.12649,0,1,1,1.51106-1.6711l40.2222,36.44417,98.52967-8.733-40.68053-22.64673a1.13018,1.13018,0,0,1,1.09741-1.97606l43.88429,24.43378a1.13012,1.13012,0,0,1-.44283,2.11439l-102.67815,9.10367Z"></path><path class="cls-3" d="M509.32869,532.07713c-20.14084,0-45.04707-1.51117-46.63855-1.60562a1.12716,1.12716,0,0,1,.07295-2.252c.6607.03564,59.4688,3.59649,69.77924-.01493a1.12383,1.12383,0,0,1,.7411,2.122C529.5485,531.64109,520.11817,532.07713,509.32869,532.07713Z"></path><path class="cls-3" d="M380.02932,576.892c-5.72581,0-16.10084-2.60846-32.56489-15.38892a1.13219,1.13219,0,0,1-.20315-1.5839,1.12055,1.12055,0,0,1,1.58412-.20315c19.5002,15.14857,29.934,15.374,33.50158,14.73424a6.51549,6.51549,0,0,0,4.58452-2.63753c2.66649-4.19169-3.28408-9.01657-4.17087-9.69953-2.28112-.90105-25.65469-10.27324-32.14978-18.64326a1.132,1.132,0,0,1,.203-1.5839,1.11974,1.11974,0,0,1,1.584.203c6.29951,8.13045,31.08212,17.88066,31.33662,17.9751.61.407,9.0894,6.69235,5.101,12.95533a8.66926,8.66926,0,0,1-6.10393,3.65452A15.73511,15.73511,0,0,1,380.02932,576.892Z"></path><path class="cls-3" d="M370.80147,583.61262c-13.67393,0-30.67515-10.22256-31.49655-10.71741a1.13834,1.13834,0,0,1-.37791-1.55416,1.12406,1.12406,0,0,1,1.55494-.378c.22543.14513,22.48,13.52825,35.58712,9.72114a11.406,11.406,0,0,0,7.411-6.16853,1.11284,1.11284,0,0,1,1.51184-.5081,1.12628,1.12628,0,0,1,.50821,1.51106,13.72488,13.72488,0,0,1-8.80606,7.33064A21.33071,21.33071,0,0,1,370.80147,583.61262Z"></path><path class="cls-3" d="M384.788,563.49406a1.12385,1.12385,0,0,1-1.11155-.94493c-.02161-.12352-2.107-12.63456-5.67457-18.542-3.48779-5.77559-12.01708-9.59016-12.10485-9.62658a1.129,1.129,0,0,1,.916-2.06383c.37044.1674,9.26349,4.13434,13.12183,10.5283,3.7855,6.27044,5.87762,18.81066,5.96471,19.341a1.12487,1.12487,0,0,1-.93,1.29309A.7461.7461,0,0,1,384.788,563.49406Z"></path><path class="cls-3" d="M318.78684,536.42954a1.12755,1.12755,0,0,1-.07284-2.25283c.02974,0,3.08092-.23958,9.20624-2.76027,11.37053-4.67975,23.59154-2.18735,24.10711-2.07129a1.12777,1.12777,0,0,1,.872,1.337,1.18434,1.18434,0,0,1-1.337.872c-.12351-.02161-12.08256-2.456-22.78505,1.95445-6.52483,2.68142-9.78652,2.91353-9.9175,2.921Z"></path><path class="cls-3" d="M360.04107,585.99566c-8.97269,0-19.54419-3.909-23.8966-5.51453-.69711-.262-1.22761-.45765-1.55506-.55956-3.07268-1.00284-9.67714-2.3034-9.74263-2.31754a1.12579,1.12579,0,1,1,.436-2.20895c.276.05056,6.80015,1.337,10.00449,2.37557.34148.11617.901.32,1.63457.596,5.9215,2.18,23.95463,8.84248,31.80162,3.17537a1.12945,1.12945,0,0,1,1.32283,1.83105C367.4156,585.28362,363.87045,585.99566,360.04107,585.99566Z"></path><path class="cls-3" d="M232.813,537.98448a1.12734,1.12734,0,0,1-.06549-2.25283c60.31928-3.61064,81.6-5.90669,81.81124-5.92829a1.04744,1.04744,0,0,1,1.24174.99482,1.12057,1.12057,0,0,1-.99471,1.24242c-.21139.02238-21.52849,2.325-81.928,5.94388Z"></path><path class="cls-3" d="M323.90931,592.2661a1.15266,1.15266,0,0,1-1.11889-1.2648c5.1365-41.13807-8.84995-59.19281-8.9875-59.37436a1.12673,1.12673,0,1,1,1.758-1.40982c.60333.74846,14.73491,18.876,9.46742,61.06095A1.12867,1.12867,0,0,1,323.90931,592.2661Z"></path><path class="cls-3" d="M468.10353,592.2661c-2.97222,0-5.987-2.53629-8.57384-7.22205l-2.34661-4.10538a1.13814,1.13814,0,0,1,.42112-1.54013,1.12608,1.12608,0,0,1,1.54013.42112l2.35474,4.11952c2.25952,4.11284,4.75114,6.3434,6.94528,6.05248,4.46178-.53049,8.1378-12.10484,6.28526-27.86365a104.55835,104.55835,0,0,0-4.97735-22.102c-2.28113-6.22656-4.77353-9.74353-6.85819-9.562-1.715.20393-4.67239,7.04051-6.45945,14.93806a1.12447,1.12447,0,1,1-2.194-.494c.60266-2.69556,3.87248-16.1582,8.39151-16.682,3.328-.37724,6.40811,3.31382,9.23465,11.02983a104.62876,104.62876,0,0,1,5.10087,22.61019c1.91056,16.25344-1.715,29.586-8.26143,30.36352A5.66416,5.66416,0,0,1,468.10353,592.2661Z"></path><path class="cls-3" d="M397.55357,566.30567h-9.90269a1.12609,1.12609,0,1,1,0-2.25217h9.90269a1.12609,1.12609,0,1,1,0,2.25217Z"></path><path class="cls-3" d="M371.20845,594.94673a1.12694,1.12694,0,0,1-.06538-2.25205l19.283-1.13393a1.15748,1.15748,0,0,1,1.192,1.061,1.12924,1.12924,0,0,1-1.06109,1.19185l-19.283,1.13315Z"></path><path class="cls-3" d="M435.61149,598.04927a1.12619,1.12619,0,0,1-.02228-2.25217l9.69953-.17486a1.04531,1.04531,0,0,1,1.148,1.10486,1.12239,1.12239,0,0,1-1.10408,1.148l-9.69943.1742Z"></path><path class="cls-3" d="M386.81544,607.51669a1.12808,1.12808,0,0,1-.0871-2.25294l19.68932-1.56909a1.18969,1.18969,0,0,1,1.21346,1.03871,1.12876,1.12876,0,0,1-1.03871,1.21345l-19.69,1.56987Z"></path><path class="cls-3" d="M809.41434,247.271a1.077,1.077,0,0,1-.53785-.13766,1.12132,1.12132,0,0,1-.58852-.988V207.21607a1.16469,1.16469,0,0,1,.06538-.39283q-.06582-.828-.06538-1.67846V167.45819a21.12875,21.12875,0,0,1,21.10649-21.1066h88.23415a21.12927,21.12927,0,0,1,21.10659,21.1066v4.80249a1.126,1.126,0,1,1-2.252,0v-4.80249a18.875,18.875,0,0,0-18.85454-18.85455H829.39446A18.87452,18.87452,0,0,0,810.54,167.45819v37.68659c0,.683.04388,1.3519.10937,2.01994a1.12093,1.12093,0,0,1-.10937.61759v36.299l31.02409-19.90049a1.13086,1.13086,0,0,1,.61091-.17409h75.45358a18.88142,18.88142,0,0,0,18.85454-18.862V189.35713a1.126,1.126,0,1,1,2.252,0v15.78765a21.13515,21.13515,0,0,1-21.10659,21.11406h-75.127l-32.47713,20.838A1.16366,1.16366,0,0,1,809.41434,247.271Z"></path><path class="cls-3" d="M912.54267,176.74407H891.95921a1.12642,1.12642,0,1,1,0-2.25284h20.58346a1.12642,1.12642,0,0,1,0,2.25284Z"></path><path class="cls-3" d="M867.17571,176.74407H833.9136a1.12642,1.12642,0,0,1,0-2.25284h33.26211a1.12642,1.12642,0,0,1,0,2.25284Z"></path><path class="cls-3" d="M912.54267,197.93765H833.9136a1.126,1.126,0,0,1,0-2.252h78.62907a1.126,1.126,0,0,1,0,2.252Z"></path><path class="cls-3" d="M415.99067,393.08566c.90694.093,1.39211.61971.81394,3.82192-.64431,3.57043-1.71421,3.94845-2.49017,3.70954-.77519-.23879-1.27739-1.5252-.58028-4.01315C414.43205,394.11535,414.80249,392.96359,415.99067,393.08566Z"></path><path class="cls-3" d="M438.89189,399.37393c.90539.10191,1.3852.63385.77441,3.83016-.68,3.56375-1.75364,3.93051-2.5266,3.68426-.77307-.24626-1.26258-1.53857-.54018-4.01906C437.322,400.388,437.70438,399.24005,438.89189,399.37393Z"></path><path class="cls-3" d="M399.392,490.76487c-18.72345,0-30.02192-18.83294-32.90638-37.53412a1.06862,1.06862,0,0,1,.03642-.50142l12.54089-41.25424a1.1237,1.1237,0,1,1,2.15014.654l-12.46047,41.0072c2.11439,13.27364,10.89885,35.37651,30.632,35.37651,9.9978-.04388,13.8049-19.94448,13.84132-20.14084l7.28755-21.03376a1.15423,1.15423,0,0,1,1.4381-.69789,1.13371,1.13371,0,0,1,.69789,1.439l-7.24432,20.867c-.12352.73354-4.16274,21.77464-15.897,21.81853Z"></path><path class="cls-3" d="M422.67855,448.82778a41.28853,41.28853,0,0,1-10.41157-1.84586c-.80648-.21808-1.59882-.42859-2.39049-.62506a68.45425,68.45425,0,0,1-13.979-4.9691c-3.73494-1.87493-7.97051-3.98943-9.67058-8.59545-1.715-4.66494-.99549-9.99045-.18143-14.10262a51.74876,51.74876,0,0,1,2.09946-7.68706c1.98353-5.22438,4.868-13.02,5.42754-14.53844A12.486,12.486,0,1,0,386.212,409.6798a1.13032,1.13032,0,0,1,1.4821.58184,1.11771,1.11771,0,0,1-.58106,1.4821,14.7445,14.7445,0,1,1,8.73311-15.287,1.18181,1.18181,0,0,1-.058.53049s-3.32718,9.00242-5.52878,14.8004a50.36855,50.36855,0,0,0-2.00579,7.33811c-.75514,3.8286-1.43143,8.74792.09456,12.88159,1.38754,3.77135,5.02791,5.59494,8.55891,7.36038a66.081,66.081,0,0,0,13.52157,4.8026c.799.19636,1.6055.41444,2.41945.6324,6.33593,1.70007,12.904,3.4507,18.03313-1.31537,4.83156-4.48261,6.59032-11.49416,8.29039-18.28017.3779-1.51183.74845-2.99382,1.148-4.41043,1.25668-4.51235,8.05015-35.23818,8.11564-35.54391a1.15315,1.15315,0,0,1,1.34432-.86463,1.13822,1.13822,0,0,1,.86463,1.34444c-.28346,1.27149-6.87389,31.09705-8.15952,35.67422-.39205,1.395-.75592,2.85539-1.12636,4.34495-1.70006,6.77187-3.6181,14.45146-8.93626,19.39239A13.65854,13.65854,0,0,1,422.67855,448.82778Z"></path><path class="cls-3" d="M446.76405,397.00871a1.12724,1.12724,0,0,1-1.10475-.90093c-.04322-.20315-1.00964-4.26464-7.15657-4.26464a1.18283,1.18283,0,0,1-1.322-1.11155,1.2171,1.2171,0,0,1,1.322-1.14051c8.07977,0,9.358,6.01528,9.36552,6.074a1.12073,1.12073,0,0,1-.88612,1.32216A1.1402,1.1402,0,0,1,446.76405,397.00871Z"></path><path class="cls-3" d="M410.552,388.52264a1.12659,1.12659,0,0,1-.69778-2.01248c8.32681-6.54644,14.16132-.58852,14.22681-.53049a1.13418,1.13418,0,0,1-.044,1.59815,1.15252,1.15252,0,0,1-1.59136-.03575c-.18154-.18233-4.50422-4.51235-11.19644.741A1.14111,1.14111,0,0,1,410.552,388.52264Z"></path><path class="cls-3" d="M446.44417,401.04871a1.12667,1.12667,0,0,1-.63908-2.05647c.12352-.087,12.47461-8.71819,14.11-21.33871.89358-6.92445-1.56987-13.834-7.33142-20.533-6.2191-7.23686-13.18-11.17484-20.68537-11.69787-11.82818-.87865-21.06271,7.164-21.15727,7.251a1.1397,1.1397,0,0,1-1.50438-.01415c-.34816-.30506-8.864-7.70855-25.04456-1.43889-15.96252,6.16185-8.922,34.74411-8.84917,35.035a1.12435,1.12435,0,1,1-2.17988.5521c-.32-1.25667-7.60742-30.8136,10.21588-37.69417,14.94474-5.7757,23.99773-.61,26.59951,1.26414,2.50655-1.96871,11.15256-7.93409,22.07235-7.20724,8.13044.567,15.61434,4.76618,22.24788,12.48219,6.19749,7.20791,8.835,14.71342,7.847,22.29845-1.773,13.63016-14.52441,22.53067-15.06158,22.90111A1.15974,1.15974,0,0,1,446.44417,401.04871Z"></path><path class="cls-3" d="M413.4507,433.76619a12.80246,12.80246,0,0,1-9.90268-4.7155,13.12129,13.12129,0,0,1-2.41946-11.436c.66136-2.79,2.05637-4.8829,3.72-5.6024a4.33645,4.33645,0,0,1,4.41712.33413,6.37533,6.37533,0,0,1,2.33982,5.68193c-.203,3.04439.02161,3.313.50889,3.90155.4866.58173.70457.85037,3.73415,1.21346a6.35613,6.35613,0,0,1,5.16569,3.33531,4.37312,4.37312,0,0,1-.4718,4.403c-1.0974,1.61976-3.56,2.72462-6.43784,2.86964C413.88664,433.75873,413.66867,433.76619,413.4507,433.76619Zm-6.61125-19.937a2.73031,2.73031,0,0,0-1.08994.247c-.81384.35562-1.87493,1.74317-2.42692,4.06149a10.89556,10.89556,0,0,0,1.95445,9.4741,10.5366,10.5366,0,0,0,8.71151,3.88741c2.43449-.12351,4.127-1.061,4.67908-1.88239a2.15586,2.15586,0,0,0,.29838-2.20149,4.20024,4.20024,0,0,0-3.37853-2.03408c-3.42241-.407-4.22154-.814-5.20957-2.01248-.93-1.119-1.25734-1.88908-1.02445-5.48557a4.20513,4.20513,0,0,0-1.38086-3.69094A1.9129,1.9129,0,0,0,406.83945,413.82917Z"></path><path class="cls-3" d="M405.50247,430.60485a1.126,1.126,0,0,1-.8213-1.89564c5.86347-6.27791-1.366-13.25293-1.67779-13.54306a1.1305,1.1305,0,1,1,1.55428-1.642c3.18951,3.02212,7.6729,10.40411,1.76544,16.72511A1.107,1.107,0,0,1,405.50247,430.60485Z"></path><path class="cls-3" d="M375.32808,405.19719a1.12781,1.12781,0,0,1-.23958-2.23045l10.0046-2.20149-6.19749-10.51348a1.13014,1.13014,0,1,1,1.947-1.14808l6.98248,11.85046a1.13665,1.13665,0,0,1-.73365,1.67846l-11.52311,2.54308A1.37868,1.37868,0,0,1,375.32808,405.19719Z"></path><path class="cls-3" d="M413.70509,361.284a1.14184,1.14184,0,0,1-1.02434-.64655l-3.7268-7.99958a1.1308,1.1308,0,1,1,2.04823-.959l3.72747,7.9988a1.122,1.122,0,0,1-1.02456,1.60629Z"></path><path class="cls-3" d="M417.31651,416.3208a1.125,1.125,0,0,1-.94493-.50811c-1.97606-2.99394-7.6141-5.02056-11.741-6.50333a33.07963,33.07963,0,0,1-4.0831-1.642c-3.28408-1.78705-2.11439-14.20375-1.45314-19.4571a1.15514,1.15514,0,0,1,.50821-.81394c12.35934-7.89756,16.33307-21.55679,16.377-21.69512a1.119,1.119,0,0,1,.97388-.814,1.04974,1.04974,0,0,1,1.11823.6108,37.9785,37.9785,0,0,0,33.40045,18.75263c.2545,0,.47992-.01492.75592-.00746a1.12607,1.12607,0,0,1,.01414,2.252c-.25438.00746-.51556.00746-.77006.00746a40.41965,40.41965,0,0,1-34.12652-17.8664c-1.70006,4.38137-6.31365,13.93589-16.07867,20.373-.98124,8.23982-.82876,15.97.35562,16.682a33.69669,33.69669,0,0,0,3.77058,1.49691c4.42536,1.584,10.47706,3.76323,12.86766,7.38946a1.12478,1.12478,0,0,1-.94425,1.74317Z"></path><path class="cls-3" d="M440.58817,425.19224a1.111,1.111,0,0,1-.81395-.349c-2.732-2.86206-7.57022-2.8115-7.62156-2.82564a1.08748,1.08748,0,0,1-1.14062-1.11233,1.12281,1.12281,0,0,1,1.11155-1.14051c.31252.01482,5.92149-.01414,9.27852,3.52432a1.12606,1.12606,0,0,1-.81394,1.90311Z"></path><path class="cls-3" d="M537.88277,619.7808a1.1112,1.1112,0,0,1-.872-.41443L522.261,601.31909a1.06017,1.06017,0,0,1-.19569-.35641,26.92953,26.92953,0,0,1,.10859-17.51l43.9861-127.025c4.011-11.57446,15.25805-19.356,27.98048-19.356H779.60292a30.86039,30.86039,0,0,1,9.47489,1.47463c.31174.15994,17.26306,12.37349,17.26306,12.37349a1.1294,1.1294,0,0,1-1.32283,1.83094L788.21251,440.6393a28.62789,28.62789,0,0,0-8.60959-1.31548H594.14044c-11.76347,0-22.15343,7.17149-25.84437,17.84491l-43.98621,127.025a24.707,24.707,0,0,0-.17408,15.8606l14.61818,17.888a1.1216,1.1216,0,0,1-.15927,1.584A1.098,1.098,0,0,1,537.88277,619.7808Z"></path><path class="cls-3" d="M743.96524,628.28916H558.502a29.83106,29.83106,0,0,1-24.35414-12.33707,27.07412,27.07412,0,0,1-3.62556-24.82728l43.98621-127.025c4.01093-11.57446,15.25048-19.3485,27.98037-19.3485H787.944a29.84728,29.84728,0,0,1,24.35414,12.33706,27.06178,27.06178,0,0,1,3.62623,24.81982l-43.98687,127.025C767.92733,620.50765,756.687,628.28916,743.96524,628.28916Zm-141.47639-181.285c-11.76336,0-22.15343,7.17071-25.84437,17.83667l-43.9861,127.02573a24.83135,24.83135,0,0,0,3.32785,22.77759A27.57689,27.57689,0,0,0,558.502,626.03632H743.96524c11.76269,0,22.14519-7.17071,25.83635-17.84413l43.986-127.02562a24.8353,24.8353,0,0,0-3.31971-22.77024A27.592,27.592,0,0,0,787.944,447.00419Z"></path><path class="cls-3" d="M948.362,559.469H788.26386a1.12642,1.12642,0,0,1,0-2.25283H948.362a1.12642,1.12642,0,0,1,0,2.25283Z"></path><path class="cls-3" d="M183.1084,559.469H1.12569a1.12642,1.12642,0,0,1,0-2.25283H183.1084a1.12642,1.12642,0,1,1,0,2.25283Z"></path><path class="cls-3" d="M403.75852,559.469H384.003a1.12642,1.12642,0,0,1,0-2.25283h19.75547a1.12642,1.12642,0,1,1,0,2.25283Z"></path><path class="cls-3" d="M861.26168,134.429a1.14018,1.14018,0,0,1-1.12647-1.192c0-.0215.08776-1.43889.08776-3.96705,0-.7558-.00746-1.6055-.02974-2.543a1.12679,1.12679,0,0,1,2.25284-.058c.0216.96654.029,1.83105.029,2.601,0,2.63007-.087,4.098-.087,4.098A1.12486,1.12486,0,0,1,861.26168,134.429Zm-.79913-19.58139a1.12479,1.12479,0,0,1-1.119-1.00218c-.465-4.26542-1.11155-8.559-1.918-12.76631a1.12437,1.12437,0,0,1,2.20895-.42112c.8281,4.26453,1.4821,8.61694,1.9471,12.9404a1.11727,1.11727,0,0,1-.99549,1.24174A.7281.7281,0,0,1,860.46255,114.84757Zm-4.91933-25.49476a1.117,1.117,0,0,1-1.08259-.82141c-1.18372-4.17755-2.54965-8.28961-4.06817-12.2209a1.13,1.13,0,0,1,.64666-1.4605,1.1525,1.1525,0,0,1,1.46038.64722c1.54,4.0028,2.935,8.18112,4.12709,12.42416a1.13045,1.13045,0,0,1-1.08337,1.43143ZM592.49851,71.50055a1.12565,1.12565,0,0,1-.901-1.80131,126.94341,126.94341,0,0,1,8.60959-9.94724,1.13068,1.13068,0,1,1,1.64193,1.55494,127.12422,127.12422,0,0,0-8.44955,9.74342A1.11222,1.11222,0,0,1,592.49851,71.50055ZM846.171,65.16528a1.11587,1.11587,0,0,1-1.003-.61747A115.10378,115.10378,0,0,0,838.731,53.43088a1.12841,1.12841,0,0,1,1.889-1.235,117.12414,117.12414,0,0,1,6.55323,11.33478,1.11608,1.11608,0,0,1-.494,1.511A1.051,1.051,0,0,1,846.171,65.16528ZM610.25554,52.50834a1.12181,1.12181,0,0,1-.82809-.35563,1.14076,1.14076,0,0,1,.058-1.59882c3.1746-2.9426,6.48841-5.83451,9.852-8.58064a1.11,1.11,0,0,1,1.584.16,1.12229,1.12229,0,0,1-.15993,1.5839c-3.3205,2.71717-6.59712,5.58-9.73607,8.49354A1.15432,1.15432,0,0,1,610.25554,52.50834ZM831.945,43.53566a1.14159,1.14159,0,0,1-.86462-.40018,102.55211,102.55211,0,0,0-8.835-9.28521,1.126,1.126,0,0,1,1.5252-1.65686,104.25767,104.25767,0,0,1,9.039,9.48892,1.12643,1.12643,0,0,1-.86452,1.85333Zm-201.58582-7.469a1.123,1.123,0,0,1-.91508-.465,1.135,1.135,0,0,1,.2545-1.57733c3.56742-2.56458,7.22194-5.00564,10.855-7.27262a1.12888,1.12888,0,0,1,1.19107,1.918c-3.59649,2.238-7.20044,4.65-10.72409,7.18564A1.1134,1.1134,0,0,1,630.35918,36.06668ZM812.97441,25.94525a1.1184,1.1184,0,0,1-.66147-.21051,105.19323,105.19323,0,0,0-10.83336-6.84415,1.12865,1.12865,0,0,1,1.08994-1.97672A108.56231,108.56231,0,0,1,813.6351,23.9037a1.12666,1.12666,0,0,1-.66069,2.04155Zm-160.58532-3.604a1.12645,1.12645,0,0,1-.53049-2.12107c3.89409-2.0714,7.847-3.99612,11.73362-5.72592a1.129,1.129,0,0,1,.91586,2.06394c-3.84353,1.69995-7.73829,3.60384-11.5885,5.65218A1.13965,1.13965,0,0,1,652.38909,22.34129Zm137.9602-8.922a1.10672,1.10672,0,0,1-.42925-.08709c-3.85767-1.584-7.92662-3.02958-12.11163-4.27946a1.1395,1.1395,0,0,1-.75592-1.40993,1.165,1.165,0,0,1,1.40993-.75514c4.25049,1.279,8.39162,2.74613,12.31545,4.36656a1.12538,1.12538,0,0,1-.42858,2.16506Zm-114.2526-1.59815a1.12635,1.12635,0,0,1-.378-2.18734c4.14191-1.48211,8.3336-2.80416,12.468-3.9157a1.12767,1.12767,0,1,1,.58106,2.17921c-4.06817,1.0974-8.20262,2.39785-12.29318,3.85834A1.15945,1.15945,0,0,1,676.09669,11.82113Zm89.47656-5.88575c-4.43193-.90772-8.704-1.642-12.94785-2.20828a1.13534,1.13534,0,0,1-.96565-1.27148,1.12363,1.12363,0,0,1,1.27149-.96643c4.2936.5736,8.62374,1.32205,12.87424,2.21564a1.12721,1.12721,0,0,1-.23223,2.23055Zm-64.461-.91519a1.12855,1.12855,0,0,1-.21062-2.2379c4.23558-.79168,8.588-1.43154,12.92558-1.88908a1.08915,1.08915,0,0,1,1.23507,1.003,1.12037,1.12037,0,0,1-1.003,1.23506c-4.2721.45754-8.55824,1.08248-12.73657,1.87415C701.25063,5.01273,701.17767,5.02019,701.1123,5.02019Zm38.74756-2.514c-4.2721-.23957-8.719-.305-12.94708-.2105a1.1264,1.1264,0,1,1-.058-2.25206c4.33-.102,8.80595-.02238,13.07059.21051a1.12694,1.12694,0,0,1-.06549,2.25205Z"></path><path class="cls-3" d="M221.42764,479.04539H153.68247a46.04977,46.04977,0,0,1-45.99869-45.9987V291.955a46.04976,46.04976,0,0,1,45.99869-45.99869H223.0621a1.126,1.126,0,1,1,0,2.252H153.68247A43.79614,43.79614,0,0,0,109.93583,291.955V433.04669a43.796,43.796,0,0,0,43.74664,43.74653h67.74517a1.12609,1.12609,0,0,1,0,2.25217ZM416.57551,328.0286a1.12223,1.12223,0,0,1-1.12647-1.12569V291.955A43.79444,43.79444,0,0,0,371.71,248.20834H295.99432a1.126,1.126,0,0,1,0-2.252H371.71A46.04825,46.04825,0,0,1,417.7012,291.955v34.94793A1.12157,1.12157,0,0,1,416.57551,328.0286Z"></path><path class="cls-3" d="M426.377,422.01765a1.12673,1.12673,0,0,1-.40029-2.18c5.25346-1.96937,4.94839-2.89191,3.67691-6.77186-.2105-.64655-.44351-1.337-.66147-2.09958-1.63458-5.653,1.02456-15.57047,1.13393-15.99158a1.16094,1.16094,0,0,1,1.38754-.79234,1.13927,1.13927,0,0,1,.79156,1.38832c-.029.09445-2.601,9.7286-1.148,14.77066.21128.72685.436,1.40247.6324,2.01994,1.43888,4.38149,1.918,6.98248-5.0131,9.58348A1.11681,1.11681,0,0,1,426.377,422.01765Z"></path><path class="cls-3" d="M676.99027,554.848a10.527,10.527,0,0,1-5.31071-1.37351c-6.96087-4.01761-7.789-15.67906-1.8385-25.98939a27.74055,27.74055,0,0,1,11.11614-11.00008c4.505-2.25217,8.85741-2.3905,12.31546-.39217,3.45147,1.991,5.51463,5.8412,5.80544,10.85508a27.72919,27.72919,0,0,1-3.96694,15.13376C690.54068,549.9941,683.26806,554.848,676.99027,554.848ZM671.78816,528.619c-5.31817,9.22707-4.86052,19.501,1.02445,22.90857,5.87761,3.38588,15.02516-1.3519,20.35145-10.579a25.44024,25.44024,0,0,0,3.6612-13.8704c-.24692-4.22822-1.91057-7.43267-4.68565-9.03817-2.761-1.584-6.37981-1.44557-10.16531.465A25.42333,25.42333,0,0,0,671.78816,528.619Z"></path><path class="cls-3" d="M159.90156,249.68376a1.1177,1.1177,0,0,1-1.09662-.872,107.988,107.988,0,0,1-1.91132-12.98361,1.13835,1.13835,0,0,1,1.01774-1.23573,1.18586,1.18586,0,0,1,1.22763,1.01777,110.69962,110.69962,0,0,0,1.86,12.69269,1.12692,1.12692,0,0,1-.843,1.35179A1.05807,1.05807,0,0,1,159.90156,249.68376Zm-2.57872-25.80049a1.12439,1.12439,0,0,1-1.12636-1.11155l-.01492-1.89654c0-3.7415.131-7.50539.40029-11.17484a1.2005,1.2005,0,0,1,1.206-1.04606,1.1294,1.1294,0,0,1,1.04606,1.206c-.26182,3.61888-.39951,7.324-.39951,11.0149l.01414,1.86747a1.12234,1.12234,0,0,1-1.11154,1.14062Zm1.88907-25.866a1.15532,1.15532,0,0,1-1.11154-1.308c.712-4.34417,1.62711-8.6527,2.72451-12.802a1.10349,1.10349,0,0,1,1.38019-.79913,1.12669,1.12669,0,0,1,.799,1.38086c-1.08259,4.07563-1.98353,8.312-2.68075,12.5841A1.12324,1.12324,0,0,1,159.21191,198.01728Zm6.6841-25.03722a1.09733,1.09733,0,0,1-.39951-.07284,1.12515,1.12515,0,0,1-.654-1.453,113.77043,113.77043,0,0,1,5.3694-11.9517,1.13079,1.13079,0,1,1,2.00513,1.04606,110.44888,110.44888,0,0,0-5.26749,11.70466A1.1326,1.1326,0,0,1,165.896,172.98006Zm11.98812-22.95914a1.15721,1.15721,0,0,1-.6392-.19636,1.13587,1.13587,0,0,1-.2908-1.56908,110.51519,110.51519,0,0,1,8.04338-10.34686,1.16275,1.16275,0,0,1,1.59812-.10125,1.142,1.142,0,0,1,.10191,1.59816,105.43408,105.43408,0,0,0-7.88341,10.12812A1.12226,1.12226,0,0,1,177.88413,150.02092Zm17.10383-19.4288a1.11184,1.11184,0,0,1-.84291-.378,1.12624,1.12624,0,0,1,.09445-1.59058c1.526-1.36605,3.10921-2.71049,4.75192-4.01839,1.81612-1.44557,3.63971-2.83322,5.4781-4.14113a1.10191,1.10191,0,0,1,1.56909.26185,1.12153,1.12153,0,0,1-.26118,1.56909q-2.69177,1.93964-5.37686,4.07574-2.41945,1.92945-4.66416,3.938A1.12074,1.12074,0,0,1,194.988,130.59212Zm21.01949-15.14122a1.1265,1.1265,0,0,1-.56691-2.10025,123.97,123.97,0,0,1,11.6541-5.96471,1.14059,1.14059,0,0,1,1.48945.57359,1.125,1.125,0,0,1-.57437,1.48957,122.18242,122.18242,0,0,0-11.436,5.84932A1.15,1.15,0,0,1,216.00745,115.4509Zm112.84279-7.934a1.11847,1.11847,0,0,1-.40029-.073c-2.56447-.96642-6.77119-2.42692-12.26411-3.88741a1.12632,1.12632,0,0,1-.799-1.38008,1.10992,1.10992,0,0,1,1.38008-.79913,129.20342,129.20342,0,0,1,12.48285,3.95958,1.12656,1.12656,0,0,1-.39951,2.18Zm-89.19311-2.63753a1.12779,1.12779,0,0,1-.349-2.20149,126.76219,126.76219,0,0,1,12.64948-3.39345,1.15452,1.15452,0,0,1,1.337.872,1.13108,1.13108,0,0,1-.87187,1.337A122.7,122.7,0,0,0,240.0053,104.828,1.15249,1.15249,0,0,1,239.65713,104.87939Zm64.13362-4.054c-4.403-.74178-8.704-1.29387-12.962-1.642a1.12831,1.12831,0,0,1,.09456-2.25283c4.41712.36309,8.78434.91585,13.05645,1.65685a1.12694,1.12694,0,0,1-.189,2.238Zm-38.79145-1.3519a1.1257,1.1257,0,0,1-.12352-2.24459c4.33749-.47247,8.72643-.727,13.06392-.76338a1.12644,1.12644,0,0,1,.01414,2.25283c-4.25718.03575-8.57317.29014-12.831.74768A.72533.72533,0,0,1,264.9993,99.47346Z"></path><path class="cls-3" d="M541.11539,219.14616H386.07434a44.57767,44.57767,0,0,1-44.53141-44.53152V100.90488a44.57765,44.57765,0,0,1,44.53141-44.53141H542.4018a44.57708,44.57708,0,0,1,44.53073,44.53141v73.70976a43.23709,43.23709,0,0,1-26.3302,40.09212,1.12567,1.12567,0,1,1-.901-2.06316,41.02882,41.02882,0,0,0,24.97919-38.029V100.90488A42.33221,42.33221,0,0,0,542.4018,58.62631H386.07434A42.33234,42.33234,0,0,0,343.795,100.90488v73.70976a42.33243,42.33243,0,0,0,42.27935,42.27868H541.11539a1.12642,1.12642,0,1,1,0,2.25284Z"></path><path class="cls-3" d="M431.54719,171.67526v-66.0154c0-4.519,1.59147-7.91983,4.47593-9.576,2.88446-1.66432,6.62607-1.32283,10.53509.959l56.27252,32.86263c3.90155,2.27366,6.05181,5.38355,6.05181,8.74058,0,3.36372-2.15026,6.4736-6.05181,8.75462l-56.28,32.89158c-3.89409,2.28191-7.63649,2.62339-10.52095.96654C433.13866,179.60256,431.54719,176.20176,431.54719,171.67526Zm75.08318-33.0219c0-2.52871-1.7513-4.94828-4.93347-6.80083L445.42428,98.9899c-3.18206-1.85254-6.12454-2.194-8.28215-.95161-2.15092,1.23507-3.34289,3.94478-3.34289,7.62157v66.0154c0,3.68426,1.192,6.39386,3.34957,7.62892,2.15828,1.23507,5.09341.89358,8.26879-.959l56.2793-32.89159C504.87907,143.59363,506.63037,141.18152,506.63037,138.65336Z"></path><path class="cls-3" d="M747.72178,438.0814a1.12266,1.12266,0,0,1-1.12647-1.12569V389.58362a1.126,1.126,0,1,1,2.252,0v47.37209A1.12246,1.12246,0,0,1,747.72178,438.0814Z"></path><path class="cls-3" d="M687.74332,401.94218a1.12256,1.12256,0,0,1-1.12569-1.12636v-11.2322a1.126,1.126,0,1,1,2.25205,0v11.2322A1.12271,1.12271,0,0,1,687.74332,401.94218Z"></path><path class="cls-3" d="M687.74332,406.41811a1.12256,1.12256,0,0,1-1.12569-1.12636v-4.47593a1.126,1.126,0,0,1,2.25205,0v4.47593A1.12271,1.12271,0,0,1,687.74332,406.41811Z"></path><path class="cls-3" d="M717.73628,396.13674c-1.2716,0-31.11865-.06538-31.11865-6.11039s29.84705-6.10984,31.11865-6.10984c1.27149,0,31.11108.06482,31.11108,6.10984S719.00777,396.13674,717.73628,396.13674Zm-28.83007-6.11039c1.0386,1.43142,11.21806,3.85834,28.83007,3.85834,17.96764,0,28.1902-2.52816,28.87317-3.94544-.683-1.24253-10.90553-3.77058-28.87317-3.77058C700.12427,386.16867,689.94481,388.59559,688.90621,390.02635Z"></path><path class="cls-3" d="M721.99413,422.76532a1.12584,1.12584,0,0,1-.3779-2.18656c.407-.14513.74845-.74111.98056-1.72234.88612-3.63225.47247-9.65577-4.2721-11.3996-1.8815-.69723-4.07631-.465-6.18324-.247a111.79485,111.79485,0,0,1-15.81683.50142l-.74845-.029a30.50186,30.50186,0,0,1-9.29334-1.32962,1.1321,1.1321,0,0,1-.67562-1.44624,1.15656,1.15656,0,0,1,1.44646-.67561,28.72921,28.72921,0,0,0,8.60948,1.19931l.74846.02907a108.21568,108.21568,0,0,0,15.19924-.45832c2.68141-.28279,5.12248-.53717,7.49136.3348,5.49292,2.01916,7.01812,8.59467,5.68861,14.05117-.15994.66147-.64655,2.68141-2.41934,3.313A1.1362,1.1362,0,0,1,721.99413,422.76532Z"></path><path class="cls-3" d="M723.38913,438.96819a1.12668,1.12668,0,0,1-.67628-2.0274,5.7803,5.7803,0,0,0,1.15543-1.15543,10.62234,10.62234,0,0,0,1.729-9.35059,5.6298,5.6298,0,0,0-2.33235-3.26247c-.78421-.43593-1.13316-.334-2.19414.058l-.42112.14591a37.63893,37.63893,0,0,1-7.81792,1.671,96.50369,96.50369,0,0,1-27.55112-.901,1.11969,1.11969,0,0,1-.93746-1.2863,1.07509,1.07509,0,0,1,1.28641-.93679,94.11529,94.11529,0,0,0,26.93353.88612,35.84665,35.84665,0,0,0,7.35971-1.56909l.39283-.13833a4.25063,4.25063,0,0,1,4.054.10937,7.92482,7.92482,0,0,1,3.37853,4.5481,12.91012,12.91012,0,0,1-2.078,11.38546,8.17142,8.17142,0,0,1-1.60551,1.598A1.11252,1.11252,0,0,1,723.38913,438.96819Z"></path><path class="cls-3" d="M681.85078,400.43112c-.74768-.13087-52.65372-10.74637-97.80939-.6539a1.073,1.073,0,0,1-1.34443-.85047,1.1146,1.1146,0,0,1,.85036-1.34366c45.66389-10.21588,98.01332.51568,98.53646.61759a1.12716,1.12716,0,0,1-.233,2.23044Z"></path><path class="cls-3" d="M669.16555,438.0814a1.12263,1.12263,0,0,1-1.12636-1.12569c0-18.818,4.39551-32.63785,12.061-37.91959a38.13728,38.13728,0,0,1,7.28008-3.284,1.109,1.109,0,0,1,1.43142.70458,1.13448,1.13448,0,0,1-.70457,1.43142,37.21856,37.21856,0,0,0-6.728,3.008c-7.04786,4.85317-11.08774,17.99672-11.08774,36.05959A1.12259,1.12259,0,0,1,669.16555,438.0814Z"></path><path class="cls-3" d="M778.07025,439.32382a1.131,1.131,0,0,1-1.08994-.82809C755.87383,361.8651,763.633,321.58408,763.71325,321.18457a1.12692,1.12692,0,0,1,2.20828.45085c-.07963.392-7.70866,40.22968,13.238,116.26444a1.13555,1.13555,0,0,1-.79167,1.38754A1.36377,1.36377,0,0,1,778.07025,439.32382Z"></path><path class="cls-3" d="M711.56619,201.15245c-.90027-.14212-1.5036.24336-1.76255,3.48723-.28858,3.61732.64888,4.25485,1.45982,4.22221.81094-.03208,1.62489-1.14808,1.58613-3.73193C712.81016,202.546,712.74623,201.33778,711.56619,201.15245Z"></path><path class="cls-3" d="M685.21817,201.44782c-.90394-.1175-1.49691.28346-1.67033,3.53334-.19346,3.62323.76115,4.23636,1.57065,4.182.81016-.05357,1.59436-1.19041,1.48722-3.7728C686.49856,202.80863,686.40256,201.60264,685.21817,201.44782Z"></path><path class="cls-3" d="M737.44776,260.12429a1.12541,1.12541,0,0,1-1.12625-1.06833l-1.63469-32.46978a1.12933,1.12933,0,0,1,1.06834-1.18439,1.10752,1.10752,0,0,1,1.18383,1.06755l1.63524,32.47056a1.12941,1.12941,0,0,1-1.06844,1.18439Z"></path><path class="cls-3" d="M696.73082,254.07927c-6.03009,0-12.308-.71938-16.20209-6.64834-3.97451-6.06663-4.00346-13.97911-4.025-20.95413-.00746-1.54-.01492-3.04439-.05814-4.49742-.14579-4.75872.60266-35.28874.63908-36.5893a1.03632,1.03632,0,0,1,1.15544-1.0974,1.12366,1.12366,0,0,1,1.0974,1.15543c-.00746.31252-.78488,31.7652-.63987,36.4591.05135,1.47452.05135,3.00051.058,4.56213.02239,6.98994.05135,14.21946,3.662,19.72652,3.851,5.856,10.68088,5.68192,17.1909,5.59494.84223-.01493,1.68525-.03653,2.50655-.03653a65.91171,65.91171,0,0,0,14.28416-1.40982,1.12485,1.12485,0,1,1,.494,2.19481,67.14879,67.14879,0,0,1-14.764,1.46717c-.813.00735-1.642.02228-2.47748.03642C698.69273,254.06446,697.71963,254.07927,696.73082,254.07927Z"></path><path class="cls-3" d="M741.48776,228.91864a14.6896,14.6896,0,0,1-8.966-3.05931,1.129,1.129,0,1,1,1.38019-1.78717,12.46735,12.46735,0,1,0-4.09046-14.34286,1.12678,1.12678,0,0,1-2.10715-.799,14.74079,14.74079,0,1,1,13.78342,19.98836Z"></path><path class="cls-3" d="M678.41423,197.30525a1.08883,1.08883,0,0,1-.47169-.10113,1.1298,1.1298,0,0,1-.55276-1.497c.02907-.058,2.76093-5.70342,10.75305-3.6113a1.12,1.12,0,0,1,.80649,1.37339,1.08607,1.08607,0,0,1-1.37273.80649c-6.23391-1.642-8.11552,2.33993-8.13791,2.37557A1.12607,1.12607,0,0,1,678.41423,197.30525Z"></path><path class="cls-3" d="M717.27863,197.93765a1.11378,1.11378,0,0,1-.88679-.42858c-5.23107-6.70638-10.47706-3.53846-10.695-3.40748a1.12887,1.12887,0,0,1-1.21346-1.90389c.07284-.04388,7.14977-4.43951,13.68139,3.91637a1.13011,1.13011,0,0,1-.189,1.584A1.14475,1.14475,0,0,1,717.27863,197.93765Z"></path><path class="cls-3" d="M693.78833,259.91378a1.12266,1.12266,0,0,1-1.12569-1.12647v-5.89243a1.126,1.126,0,1,1,2.252,0v5.89243A1.1228,1.1228,0,0,1,693.78833,259.91378Z"></path><path class="cls-3" d="M751.17983,204.92013a1.126,1.126,0,0,1-.41444-2.17253c-.029,0,3.41506-2.39785,5.464-20.50393,1.26413-11.247-5.4996-17.583-10.36089-19.10147-9.29267-2.89125-21.16463-1.5907-21.27333-1.57655a1.08829,1.08829,0,0,1-1.14129-.61013c-6.379-12.62787-14.63968-17.31441-20.45258-19.01437a24.17686,24.17686,0,0,0-19.29047,2.41946c-6.16854,3.62556-9.98968,8.2465-11.35572,13.71792-2.194,8.79849,2.71716,16.97215,2.76773,17.05246a1.12544,1.12544,0,0,1-.10859,1.32962,1.10673,1.10673,0,0,1-1.30045.29014c-1.59893-.73364-2.84814,1.51173-3.18963,2.20895-2.4924,4.99149-1.73648,14.87257,7.78151,20.22783a1.12553,1.12553,0,1,1-1.10487,1.96125c-10.79616-6.06663-11.57368-17.4297-8.69658-23.19872a6.06352,6.06352,0,0,1,3.72-3.49536c-1.46049-3.1091-3.851-9.71368-2.06316-16.8992,1.51852-6.09636,5.68861-11.18976,12.40178-15.142a26.46343,26.46343,0,0,1,21.0783-2.63742c6.12465,1.79452,14.77066,6.64089,21.477,19.472,2.85561-.247,12.962-.89359,21.41912,1.74394,6.89471,2.15015,13.20157,10.22257,11.93009,21.49865-2.20895,19.57393-6.118,22.05141-6.87311,22.349A1.05327,1.05327,0,0,1,751.17983,204.92013Z"></path><path class="cls-3" d="M697.05069,224.92932c-.741,0-7.29489-.06549-9.50306-2.42691a2.86217,2.86217,0,0,1-.81384-2.18668,20.75242,20.75242,0,0,1,1.52588-5.02056c1.74317-4.59934,4.13366-10.89139,2.659-16.87091a1.12942,1.12942,0,1,1,2.194-.53718c1.642,6.655-1.00285,13.60856-2.74613,18.20722a20.67346,20.67346,0,0,0-1.38085,4.36656.60449.60449,0,0,0,.21061.50142c1.10475,1.1845,5.26081,1.71488,7.85434,1.71488a1.12608,1.12608,0,1,1,0,2.25216Z"></path><path class="cls-3" d="M745.803,222.36475a1.12607,1.12607,0,0,1-.50076-.11606l-10.579-5.23185a1.13048,1.13048,0,0,1-.30506-1.80119l9.61923-9.83052a1.13035,1.13035,0,1,1,1.613,1.584l-8.52918,8.71819,9.18319,4.54142a1.12647,1.12647,0,0,1-.50142,2.136Z"></path><path class="cls-3" d="M720.74425,169.32554a1.15,1.15,0,0,1-.48661-.10937,1.12948,1.12948,0,0,1-.53049-1.5036l3.72-7.75254a1.12768,1.12768,0,1,1,2.0342.974l-3.72,7.75176A1.12394,1.12394,0,0,1,720.74425,169.32554Z"></path><path class="cls-3" d="M828.79859,554.90607a1.11085,1.11085,0,0,1-.88612-.436c-.11595-.145-11.72694-15.12708-25.41512-39.5251a1.12552,1.12552,0,1,1,1.96124-1.10487,355.99491,355.99491,0,0,0,24.87049,38.77742c20.79407-1.32951,45.93309-20.01,50.06007-23.18456q-6.12449-21.89605-12.12645-43.81949c-12.584-45.85357-23.19125-87.02071-32.4407-125.84791-.87944-3.68426-1.66354-7.46241-2.44853-11.26194-3.03693-14.61151-6.17588-29.73112-15.21405-41.57411-14.48788-18.9921-41.763-32.80458-66.32108-33.58868a1.12382,1.12382,0,0,1-1.08994-1.16289,1.15342,1.15342,0,0,1,1.1629-1.08994c25.18958.80648,53.17006,14.98195,68.03517,34.47557,9.35059,12.25,12.54768,27.61651,15.63595,42.48251.78421,3.778,1.56174,7.53447,2.4336,11.19645,9.242,38.8056,19.84257,79.94378,32.42667,125.775q6.11446,22.28765,12.32281,44.53152a1.11889,1.11889,0,0,1-.37791,1.18439c-1.177.94415-29.0771,23.03209-52.531,24.17271Z"></path><path class="cls-3" d="M567.2284,457.92387a1.14736,1.14736,0,0,1-.72685-.26107c-25.44419-21.32468-12.38763-54.057,1.8384-80.19149,2.049-3.77068,4.316-8.77632,6.94595-14.56016,14.92391-32.91317,42.70057-94.16234,111.00439-94.16234a1.126,1.126,0,1,1,0,2.252c-66.8441,0-93.20337,58.11768-108.95538,92.8403-2.63753,5.827-4.926,10.86242-7.0189,14.70595-13.8117,25.37859-26.55563,57.10805-2.36143,77.38588a1.12642,1.12642,0,0,1-.72618,1.99088Z"></path><path class="cls-3" d="M731.16317,206.42373a1.11027,1.11027,0,0,1-.40686-.07284c-10.6586-4.14113-13.65243-22.93019-14.38608-29.64336-4.73031,4.17755-18.731,14.415-38.41354,9.80824a1.11942,1.11942,0,0,1-.84291-1.35112,1.1454,1.1454,0,0,1,1.35179-.843c23.06105,5.377,37.83171-10.637,37.97762-10.79694a1.17258,1.17258,0,0,1,1.206-.31242,1.13868,1.13868,0,0,1,.75514.99539c.01493.25449,1.75141,25.60413,13.16583,30.03618a1.12747,1.12747,0,0,1-.407,2.17988Z"></path><path class="cls-3" d="M806.55884,557.7541a1.13967,1.13967,0,0,1-1.12636-1.192c1.206-20.22716,1.62711-28.49527,1.75063-31.82312a1.16,1.16,0,0,1-.18823-.73364c.15916-1.84586.13766-2.7253,1.424-2.70291.46512.03642.77018.058.89359,1.41661a.79072.79072,0,0,1,.029.47981c.16005,3.08761-.334,11.32665-1.65685,33.49423A1.12407,1.12407,0,0,1,806.55884,557.7541Z"></path><path class="cls-3" d="M724.22469,331.48008a1.12357,1.12357,0,0,1-.96654-.54463l-19.908-33.29854-17.7206,24.60853a1.14378,1.14378,0,0,1-1.26481.41443,1.13239,1.13239,0,0,1-.77752-1.07579V272.21432a1.1518,1.1518,0,0,1,.189-.6324l9.07537-13.427a1.1661,1.1661,0,0,1,1.12558-.47915,1.12331,1.12331,0,0,1,.901.8281l9.13341,34.81706,33.16009-35.68158a1.17631,1.17631,0,0,1,1.6495,0l12.88159,13.80491a1.14565,1.14565,0,0,1,.19647,1.24253l-26.65019,58.13929a1.12924,1.12924,0,0,1-.96642.654Zm-19.385-35.74706,19.25405,32.20114,25.44408-55.50188-11.53793-12.366ZM685.8401,272.56326V318.0895l16.3696-22.727-8.879-33.8796Z"></path><path class="cls-3" d="M699.95007,387.14256c-.85037-.15994-1.23573-.76338-1.10475-1.36605,6.51-29.69525,20.08949-62.41206,20.22782-62.7394a1.143,1.143,0,0,1,1.47464-.60267,1.1268,1.1268,0,0,1,.60345,1.47464c-.131.32734-13.63751,32.86261-20.097,62.34658A1.13166,1.13166,0,0,1,699.95007,387.14256Z"></path><path class="cls-3" d="M681.85078,400.43112a1.1267,1.1267,0,0,1-1.12569-1.075c-2.11439-46.8416,4.39562-79.85669,4.46111-80.19149a1.09506,1.09506,0,0,1,1.32952-.87865,1.12674,1.12674,0,0,1,.87932,1.32951c-.06538.3191-6.51736,33.08725-4.41779,79.63872a1.12316,1.12316,0,0,1-1.07512,1.17692Z"></path><path class="cls-3" d="M705.45724,331.48008c-.10937,0-12.94719-1.22092-12.94719-1.22092a1.13338,1.13338,0,0,1-1.01776-1.03871l-1.34355-16.6604a1.12933,1.12933,0,0,1,2.25194-.17409l1.26414,15.7156,11.25447,1.06833,9.88186-13.703a1.1289,1.1289,0,1,1,1.83026,1.32205l-10.25909,14.22614A1.13074,1.13074,0,0,1,705.45724,331.48008Z"></path><path class="cls-3" d="M707.56428,359.104a1.12634,1.12634,0,0,1-1.12647-1.03938l-2.107-27.6233a1.13629,1.13629,0,0,1,1.03938-1.21345,1.15814,1.15814,0,0,1,1.21357,1.0387l2.10692,27.624a1.13614,1.13614,0,0,1-1.03937,1.21346Z"></path><path class="cls-3" d="M683.46375,348.6271a1.12516,1.12516,0,0,1-1.00953-1.6279l9.1549-18.36715a1.11751,1.11751,0,0,1,1.51106-.509,1.12882,1.12882,0,0,1,.50888,1.51184l-9.15489,18.36716A1.12026,1.12026,0,0,1,683.46375,348.6271Z"></path><path class="cls-3" d="M632.82251,394.20456a1.12271,1.12271,0,0,1-1.12636-1.12636c0-45.30826,17.147-81.55675,17.32188-81.91316a1.12761,1.12761,0,1,1,2.03409.97389c-.17409.35563-17.10313,36.16072-17.10313,80.93927A1.12274,1.12274,0,0,1,632.82251,394.20456Z"></path><path class="cls-3" d="M703.64112,236.91076a12.315,12.315,0,0,1-3.90222-.712,1.12809,1.12809,0,0,1-.712-1.42408,1.1018,1.1018,0,0,1,1.424-.712c2.65981.88612,4.68644.77006,6.02341-.32734,2.47759-2.04155,2.398-7.24355,2.15839-9.0746a1.128,1.128,0,0,1,2.23724-.29092c.044.32.974,7.86192-2.96409,11.10947A6.52212,6.52212,0,0,1,703.64112,236.91076Z"></path><g><g><path class="cls-2" d="M331.40056,372.62074a13.07766,13.07766,0,0,0-1.70559-6.473,13.0798,13.0798,0,0,0-8.01792-23.4177h-34.1278l2.728-16.88073a30.57749,30.57749,0,0,0-.59888-12.68238,54.90487,54.90487,0,0,0-4.23533-11.57941c-2.81-5.31813-6.286-8.01467-10.3309-8.01467-7.393,0-10.66027,6.07674-11.10024,10.29332l-2.56548,15.13544-18.1099,32.65262v63.046H247.682c2.85353,0,4.0518.713,4.43475,1.01972a16.142,16.142,0,0,0,10.02837,3.59734h49.44848a13.09516,13.09516,0,0,0,11.37877-19.55762,13.09275,13.09275,0,0,0,3.36126-16.806A13.06948,13.06948,0,0,0,331.40056,372.62074Z"></path><path class="cls-2" d="M235.19164,344.744H202.23679a8.11273,8.11273,0,0,0-8.14493,8.06167v59.96078a8.113,8.113,0,0,0,8.14493,8.06208h32.95485a8.11294,8.11294,0,0,0,8.14492-8.06208V352.80566A8.11273,8.11273,0,0,0,235.19164,344.744Z"></path></g><path class="cls-3" d="M303.92089,412.64465H254.47264a17.14111,17.14111,0,0,1-10.65381-3.81738c-.1665-.13281-1.13525-.79981-3.80957-.79981h-4.34521a.99973.99973,0,0,1-1-1V343.98157a.99842.99842,0,0,1,.12549-.48536l18.02685-32.50293,2.53711-14.96679c.46045-4.43457,4.06885-11.126,12.08594-11.126,4.44531,0,8.21826,2.876,11.21533,8.54785a55.87275,55.87275,0,0,1,4.31885,11.793,31.58864,31.58864,0,0,1,.61865,13.09473l-2.541,15.72168h32.95312a14.079,14.079,0,0,1,9.28223,24.66992,14.13645,14.13645,0,0,1,1.4414,6.2207,13.992,13.992,0,0,1-4.80273,10.58594,14.13229,14.13229,0,0,1,1.44141,6.21973A13.98721,13.98721,0,0,1,316.564,392.34a14.0953,14.0953,0,0,1-12.64306,20.30469Zm-67.25684-6.61719h3.34521c3.05518,0,4.48145.77637,5.05957,1.23829a15.13238,15.13238,0,0,0,9.40381,3.3789h49.44825a12.095,12.095,0,0,0,10.50927-18.06347,1.00019,1.00019,0,0,1,.25586-1.28321,12.09232,12.09232,0,0,0,3.10547-15.52246,1.00017,1.00017,0,0,1,.25586-1.2832,12.0935,12.0935,0,0,0,3.106-15.52246.99937.99937,0,0,1,.25488-1.28321,12.07993,12.07993,0,0,0-7.40381-21.6289H279.87645a1.00012,1.00012,0,0,1-.9873-1.15918l2.72851-16.88086a29.59093,29.59093,0,0,0-.57959-12.27051,53.91809,53.91809,0,0,0-4.15185-11.36523c-2.623-4.96387-5.80127-7.48145-9.44678-7.48145-7.21777,0-9.7666,6.14649-10.10547,9.39649l-2.57422,15.19921a1.01757,1.01757,0,0,1-.11133.31836l-17.98437,32.42579Z"></path><path class="cls-3" d="M227.519,414.15637H194.56444a9.11442,9.11442,0,0,1-9.145-9.0625V345.13293a9.11422,9.11422,0,0,1,9.145-9.06152H227.519a9.11422,9.11422,0,0,1,9.145,9.06152v59.96094A9.11442,9.11442,0,0,1,227.519,414.15637Zm-32.95459-76.085a7.1117,7.1117,0,0,0-7.145,7.06152v59.96094a7.1119,7.1119,0,0,0,7.145,7.0625H227.519a7.1119,7.1119,0,0,0,7.145-7.0625V345.13293a7.1117,7.1117,0,0,0-7.145-7.06152Z"></path></g></g></g></g></svg> 